<svg xmlns="http://www.w3.org/2000/svg" xmlns:xlink="http://www.w3.org/1999/xlink" version="1.1" id="Layer_1" x="0px" y="0px" style="enable-background:new 0 0 1135.7 303.5;" xml:space="preserve" viewBox="0 0.4 1135.7 208.7">
<style type="text/css">
	.st0{fill:#0096F5;}
	.st1{fill:#404040;}
	.st2{fill:#424242;}
</style>
<g>
	<g>
		<rect y="0.4" class="st0" width="34.8" height="34.8"/>
		<rect y="69.9" class="st0" width="34.8" height="139.2"/>
		<rect y="174.3" class="st0" width="139.2" height="34.8"/>
		<rect x="173.9" y="174.3" class="st0" width="34.8" height="34.8"/>
		<rect x="173.9" y="0.4" class="st0" width="34.8" height="139.2"/>
		<rect x="69.5" y="0.4" class="st0" width="139.2" height="34.8"/>
		<rect x="69.5" y="69.9" class="st0" width="69.5" height="69.5"/>
		<path class="st1" d="M278.3,174.3V35.2h16.2v124.1h81.3v15.1h-97.5V174.3z"/>
		<path class="st1" d="M458.2,35.2h3.7l68.6,139.2H512l-12.3-24.1h-79.1l-12.3,24.1h-18.3L458.2,35.2z M461,68.1h-1.8l-29.5,64.5    l-1.2,2.1h63.4l-1.2-2.1L461,68.1z"/>
		<path class="st1" d="M509.6,35.2h113.9v15.1h-48.9v124.1h-16.2V50.2h-48.7v-15H509.6z"/>
		<path class="st1" d="M663.2,174.3H647V35.2h16.2V174.3z"/>
		<path class="st1" d="M824.6,174.3h-4.8l-100.5-105v105h-16.2V35.2h4.8l100.5,104.6V35.2h16.2V174.3z"/>
		<path class="st1" d="M913.9,35.2h5.6l73.1,139.2h-38.1l-7.7-16.4h-60.5l-7.4,16.4h-37.8L913.9,35.2z M917.4,94h-1.8l-17.2,36.4    l-2.1,3.7h40.3l-2.1-3.7L917.4,94z"/>
		<path class="st1" d="M1062,174.3h-57.8V35.2h57.8c46.5,0,73.7,29.7,73.7,69.5C1135.7,144.7,1108.3,174.3,1062,174.3z M1037.8,64.2    v81.2h21.5c24.1,0,41.5-13.7,41.5-40.6s-17.4-40.6-41.5-40.6C1059.4,64.2,1037.8,64.2,1037.8,64.2z"/>
	</g>
</g>
</svg>